<svg xmlns="http://www.w3.org/2000/svg" viewBox="0 0 64 64">
  <defs>
    <linearGradient id="g" x1="0" y1="0" x2="1" y2="1">
      <stop offset="0%" stop-color="#34f5d0"/>
      <stop offset="100%" stop-color="#22b4ff"/>
    </linearGradient>
  </defs>
  <rect width="64" height="64" rx="12" fill="#030712"/>
  <path d="M22 16 10 27.5a4 4 0 0 0 0 5.8L22 45a4 4 0 0 0 5.7 0L32 41.1a2.8 2.8 0 0 0-4-4l-3.5 3.2L14.8 31l9.7-9.3 9 8.5h-5.3a2.8 2.8 0 0 0 0 5.6H44a2.8 2.8 0 0 0 2.8-2.8v-5.5a2.8 2.8 0 0 0-5.6 0v.7L28 15.9a4 4 0 0 0-6 0Z" fill="url(#g)"/>
</svg>
